 <svg version="1.0" xmlns="http://www.w3.org/2000/svg" width="700.000000pt" height="100.000000pt" viewBox="0 0 700.000000 100.000000" preserveAspectRatio="xMidYMid meet">
<metadata>Created by potrace 1.12, written by Peter Selinger 2001-2015</metadata>
<g transform="translate(0.000000,100.000000) scale(0.100000,-0.100000)" fill="#284a6c" stroke="none" stroke-width="25">
<path d="M666 904 c-3 -9 -6 -67 -6 -130 l0 -114 -45 0 -45 0 0 75 c0 93 -11 96 -72 23 -24 -28 -64 -75 -90 -103 -27 -29 -48 -55 -48 -58 0 -4 171 -7 381 -7 l380 0 -3 33 c-3 31 -5 32 -50 35 l-48 3 0 114 c0 62 -3 120 -6 129 -8 22 -80 22 -88 0 -3 -9 -6 -67 -6 -130 0 -95 -3 -114 -15 -114 -12 0 -15 19 -15 114 0 63 -3 121 -6 130 -8 22 -80 22 -88 0 -3 -9 -6 -67 -6 -130 0 -95 -3 -114 -15 -114 -12 0 -15 19 -15 114 0 63 -3 121 -6 130 -8 22 -80 22 -88 0z"></path>
<path d="M3243 898 c-4 -7 -26 -62 -48 -123 l-40 -110 -260 -5 c-245 -5 -262 -6 -302 -27 -23 -13 -44 -27 -48 -33 -4 -7 239 -10 743 -10 l750 0 11 31 c6 18 11 34 11 35 0 2 -166 4 -370 4 -290 0 -370 3 -370 13 1 6 20 59 45 117 24 58 41 108 39 112 -9 14 -152 9 -161 -4z"></path>
<path d="M4936 789 c-41 -63 -85 -99 -148 -118 -27 -9 -39 -20 -47 -43 -6 -17 -11 -33 -11 -34 0 -2 75 -4 166 -4 l166 0 31 33 32 32 -57 3 c-39 2 -58 7 -58 16 0 7 11 46 25 86 14 40 25 77 25 82 0 4 -19 8 -42 8 -42 0 -44 -2 -82 -61z"></path>
<path d="M5860 770 c-83 -7 -125 -29 -140 -74 l-11 -34 -212 -4 c-196 -3 -215 -5 -254 -25 -23 -13 -44 -27 -48 -33 -4 -7 150 -10 468 -10 443 0 475 1 480 18 2 9 8 25 12 35 7 16 -3 17 -119 17 -140 0 -136 -2 -112 68 8 23 12 43 8 45 -4 1 -36 0 -72 -3z"></path>
<path d="M1231 629 c-6 -18 -11 -34 -11 -35 0 -2 80 -4 177 -4 l177 0 28 27 c15 15 28 30 28 35 0 4 -87 8 -194 8 l-194 0 -11 -31z"></path>
<path d="M1790 634 c-6 -14 -10 -30 -10 -35 0 -5 38 -9 84 -9 l84 0 11 31 c6 18 11 34 11 35 0 2 -38 4 -85 4 -83 0 -86 -1 -95 -26z"></path>
<path d="M2042 635 c-7 -14 -12 -30 -12 -35 0 -6 37 -10 84 -10 l84 0 11 31 c6 18 11 34 11 35 0 2 -38 4 -83 4 -80 0 -84 -1 -95 -25z"></path>
<path d="M2290 634 c-6 -14 -10 -30 -10 -35 0 -5 38 -9 84 -9 l84 0 11 31 c6 18 11 34 11 35 0 2 -38 4 -85 4 -83 0 -86 -1 -95 -26z"></path>
<path d="M4319 649 c-20 -4 -54 -18 -75 -31 l-39 -23 199 -3 c109 -1 201 -1 203 1 9 10 -12 39 -38 52 -31 17 -188 19 -250 4z"></path>
<path d="M6341 629 c-6 -18 -11 -34 -11 -35 0 -2 38 -4 85 -4 83 0 86 1 95 26 6 14 10 30 10 35 0 5 -38 9 -84 9 l-84 0 -11 -31z"></path>
<path d="M6605 628 l-13 -33 85 -3 c47 -2 87 -1 89 1 2 2 7 18 10 35 l7 32 -82 0 -82 0 -14 -32z"></path>
<path d="M280 509 c-68 -76 -130 -153 -130 -161 0 -5 216 -8 480 -8 l479 0 6 33 c3 17 5 66 3 107 l-3 75 -395 2 -395 2 -45 -50z"></path>
<path d="M1293 498 c-76 -77 -91 -110 -63 -138 19 -19 34 -20 218 -20 176 0 200 2 228 19 31 19 32 19 48 0 13 -16 30 -19 96 -19 54 0 91 5 111 16 28 14 32 14 48 0 14 -13 45 -16 170 -16 163 0 194 7 223 52 14 22 58 143 58 160 0 4 -37 8 -83 8 l-83 0 -24 -70 -24 -70 -38 0 c-21 0 -38 2 -38 3 0 2 9 30 20 62 11 32 20 62 20 67 0 4 -38 8 -83 8 l-84 0 -24 -70 -24 -70 -37 0 c-21 0 -38 3 -38 8 0 4 9 31 20 60 11 29 20 57 20 62 0 6 -35 10 -83 10 l-83 0 -24 -70 -24 -70 -145 0 -145 0 29 33 c17 17 45 49 64 70 l35 37 -100 0 -100 0 -61 -62z"></path>
<path d="M2500 534 c-28 -72 3 -143 78 -177 67 -31 199 -31 259 1 72 38 115 119 93 176 -9 26 -12 27 -76 24 l-67 -3 -26 -72 c-25 -70 -27 -73 -57 -73 -57 0 -65 37 -29 133 6 15 -1 17 -79 17 -84 0 -87 -1 -96 -26z"></path>
<path d="M3056 382 c-63 -188 -65 -217 -20 -228 89 -23 276 92 325 199 18 42 25 137 13 185 -6 21 -10 22 -133 22 l-126 -1 -59 -177z m197 38 c-1 -21 -9 -53 -18 -71 -18 -33 -103 -124 -111 -117 -2 3 10 36 27 74 17 38 42 93 55 123 19 42 27 52 36 43 7 -7 12 -30 11 -52z"></path>
<path d="M3564 525 c-57 -137 55 -239 189 -172 44 23 46 23 61 5 14 -16 32 -18 146 -18 140 0 183 11 195 50 6 20 7 19 38 -4 48 -37 104 -45 302 -46 139 0 186 3 208 15 25 13 31 13 52 -1 19 -13 53 -15 189 -12 164 3 166 3 192 29 l26 27 34 -23 c35 -24 112 -45 164 -45 138 0 245 93 225 196 l-6 35 -71 -3 -71 -3 -25 -72 c-23 -71 -25 -73 -57 -73 -51 0 -62 21 -42 84 10 29 17 56 17 59 0 4 -38 7 -84 7 l-84 0 -12 -36 c-7 -19 -9 -51 -6 -70 l7 -34 -116 0 c-63 0 -115 4 -115 8 0 5 9 35 20 67 11 32 20 60 20 62 0 1 -38 3 -84 3 l-85 0 -22 -70 -23 -70 -197 0 c-227 0 -231 1 -210 71 7 23 15 47 18 55 4 11 -12 14 -86 14 -83 0 -91 -2 -102 -22 -7 -13 -13 -44 -13 -70 l0 -48 -88 0 c-48 0 -88 2 -88 3 0 2 9 30 20 62 11 32 20 62 20 67 0 4 -37 8 -83 8 l-82 0 -24 -70 c-22 -64 -27 -70 -51 -70 -43 0 -56 23 -42 76 7 24 12 49 12 54 0 6 -36 10 -86 10 l-85 0 -15 -35z"></path>
<path d="M4430 547 c0 -19 40 -54 70 -62 43 -10 110 26 110 61 0 11 -19 14 -90 14 -68 0 -90 -3 -90 -13z"></path>
<path d="M5759 533 c-22 -57 -39 -106 -39 -114 0 -12 42 -11 73 0 16 6 30 27 45 66 12 31 22 61 22 66 0 5 -20 9 -45 9 -40 0 -47 -3 -56 -27z"></path>
<path d="M5942 492 c-46 -143 -35 -155 144 -150 122 3 135 5 156 25 l22 22 22 -24 c13 -14 34 -25 49 -25 30 0 30 -1 5 -42 -22 -37 -26 -103 -9 -142 14 -30 65 -56 111 -56 82 1 159 66 210 177 l28 63 75 0 c68 0 78 3 106 28 46 41 32 52 -67 52 -46 0 -84 4 -84 8 0 5 9 35 20 67 11 32 20 60 20 62 0 1 -38 3 -84 3 l-85 0 -21 -57 c-11 -32 -23 -64 -25 -70 -3 -8 -22 -13 -49 -13 l-45 0 24 70 24 71 -87 -3 -87 -3 -24 -67 -23 -68 -94 0 c-52 0 -94 2 -94 3 0 2 9 30 20 62 11 32 20 62 20 67 0 4 -35 8 -78 8 l-78 0 -22 -68z m533 -237 c-14 -36 -25 -68 -25 -71 0 -4 -7 -1 -15 6 -8 7 -15 21 -15 32 0 36 42 98 66 98 10 0 6 -18 -11 -65z"></path>
</g>
</svg>